<svg width="48" height="48" viewBox="0 0 48 48" fill="none" xmlns="http://www.w3.org/2000/svg">
<path d="M18.7053 9.6C17.9763 9.6 17.3853 10.191 17.3853 10.92C17.3853 11.649 17.9763 12.24 18.7053 12.24H35.3995C36.1285 12.24 36.7195 11.649 36.7195 10.92C36.7195 10.191 36.1285 9.6 35.3995 9.6H18.7053Z" fill="#3C4A61"/>
<path d="M11.2799 18.6421C11.2799 17.9131 11.8708 17.3221 12.5999 17.3221H35.3995C36.1285 17.3221 36.7195 17.9131 36.7195 18.6421C36.7195 19.3711 36.1285 19.9621 35.3995 19.9621H12.5999C11.8708 19.9621 11.2799 19.3711 11.2799 18.6421Z" fill="#3C4A61"/>
<path d="M12.5999 25.0441C11.8708 25.0441 11.2799 25.6351 11.2799 26.3641C11.2799 27.0932 11.8708 27.6841 12.5999 27.6841H25.2237C25.9527 27.6841 26.5437 27.0932 26.5437 26.3641C26.5437 25.6351 25.9527 25.0441 25.2237 25.0441H12.5999Z" fill="#3C4A61"/>
<path d="M29.5598 25.0441C28.8308 25.0441 28.2398 25.6351 28.2398 26.3641C28.2398 27.0932 28.8308 27.6841 29.5598 27.6841H35.3997C36.1287 27.6841 36.7197 27.0932 36.7197 26.3641C36.7197 25.6351 36.1287 25.0441 35.3997 25.0441H29.5598Z" fill="#3C4A61"/>
<path d="M11.2804 10.92C11.2804 10.191 11.8714 9.6 12.6004 9.6C13.3295 9.6 13.9204 10.191 13.9204 10.92C13.9204 11.649 13.3295 12.24 12.6004 12.24C11.8714 12.24 11.2804 11.649 11.2804 10.92Z" fill="#3C4A61"/>
<path fill-rule="evenodd" clip-rule="evenodd" d="M7.74771 0H40.2511C44.2584 0 47.5188 3.4934 47.5184 7.78727V29.8758C47.5184 34.1695 44.2582 37.6629 40.2507 37.6629H25.9654C23.4306 41.3844 18.8469 45.9497 10.9815 47.9181C10.7614 47.9732 10.541 48 10.324 48C9.37909 48 8.49608 47.4924 7.96281 46.603C7.29839 45.4947 7.35424 44.1063 8.10518 43.0661C9.29937 41.4114 10.2682 39.6004 10.9971 37.6627H7.74771C3.74024 37.6627 0.479858 34.1695 0.479858 29.8756V7.78707C0.479858 3.4934 3.74024 0 7.74771 0ZM40.2511 35.04C42.7391 35.04 45.1197 32.5418 45.1199 29.8758V7.78727C45.1199 5.12151 42.7394 2.64 40.2513 2.64H7.74808C5.25994 2.64 2.87986 5.12131 2.87986 7.78727V29.876C2.87986 32.5418 5.25994 35.04 7.74808 35.04H12.9433C12.9913 35.04 13.0383 35.0395 13.0843 35.039C13.457 35.0349 13.7673 35.0315 14.0504 35.3083C14.4206 35.6703 14.3884 36.1698 14.2611 36.6172C13.406 39.6246 12.0682 42.4022 10.2851 44.8725C10.2559 44.9128 10.254 44.9319 10.2632 44.9654C10.2766 45.0132 10.3088 45.0441 10.3187 45.0479C10.3187 45.0479 10.3332 45.0487 10.3549 45.0433C17.8173 43.1755 21.9559 38.7439 24.1139 35.3548C24.3308 35.0142 24.6685 35.0244 25.0428 35.0358C25.1114 35.0379 25.1813 35.04 25.2519 35.04H40.2511Z" fill="#3C4A61"/>
</svg>
