<svg width="42" height="38" viewBox="0 0 42 38" fill="none" xmlns="http://www.w3.org/2000/svg">
<path fill-rule="evenodd" clip-rule="evenodd" d="M15.5152 37.857H8.01399C7.22845 37.857 6.59165 37.2317 6.59165 36.4602V21.7397H3.54298C0.678917 21.7397 -0.651253 18.2575 1.47237 16.4001L17.4667 1.5257C19.4485 -0.318149 22.5517 -0.318136 24.5335 1.52574L40.5259 16.3996C42.6537 18.2569 41.319 21.7397 38.4558 21.7397H35.4099V36.4602C35.4099 37.2317 34.7731 37.857 33.9876 37.857H26.4857C26.4808 37.8571 26.4758 37.8571 26.4709 37.8571H15.5299C15.525 37.8571 15.5201 37.8571 15.5152 37.857ZM27.1057 33.0784H14.8951V26.4167C14.8951 24.2212 17.1184 20.4561 21.0004 20.4561C24.8825 20.4561 27.1057 24.2212 27.1057 26.4167V33.0784Z" fill="#3C4A61"/>
</svg>
