<svg width="48" height="48" viewBox="0 0 48 48" fill="none" xmlns="http://www.w3.org/2000/svg">
<path d="M22.3997 12.7998C22.3997 14.5671 20.967 15.9998 19.1997 15.9998C17.4324 15.9998 15.9997 14.5671 15.9997 12.7998C15.9997 11.0325 17.4324 9.59979 19.1997 9.59979C20.967 9.59979 22.3997 11.0325 22.3997 12.7998Z" fill="#3C4A61"/>
<path fill-rule="evenodd" clip-rule="evenodd" d="M0 46V38.1481L-0.141861 38.0273L0 37.8607V2C0 0.895432 0.895431 0 2 0H46C47.1046 0 48 0.895431 48 2V46C48 47.1046 47.1046 48 46 48H2C0.895432 48 0 47.1046 0 46ZM3 45V38.9653L12.5117 27.7994L20.3013 36.7574L15.0025 45H3ZM18.5689 45H45V36.9962L33.5891 21.6353L18.5689 45ZM45 31.9654V3H3V34.339L12.4883 23.2006L21.9911 34.1288L33.4109 16.3647L45 31.9654Z" fill="#3C4A61"/>
</svg>
