<svg width="42" height="42" viewBox="0 0 42 42" fill="none" xmlns="http://www.w3.org/2000/svg">
<path fill-rule="evenodd" clip-rule="evenodd" d="M29.4375 7.32579H40.3739C41.038 7.33025 41.5257 7.74097 41.5714 8.50213V10.7577L28.757 18.5888C27.3869 19.4261 25.8967 20.0321 24.3463 20.3901C24.0795 19.4238 23.194 18.7142 22.1429 18.7142H19.8572C18.806 18.7142 17.9205 19.4238 17.6537 20.3901C16.1033 20.0321 14.6132 19.4261 13.243 18.5888L0.428589 10.7577V8.47869C0.428589 7.85146 0.963187 7.32579 1.63395 7.32579H12.5625V3.88717C12.5625 1.97981 14.1853 0.428467 16.1786 0.428467H25.8214C27.8147 0.428467 29.4375 1.97981 29.4375 3.88717V7.32579ZM16.1786 2.73427C15.5145 2.73427 14.9732 3.25101 14.9732 3.88717V7.32579H27.0268V3.88717C27.0268 3.25101 26.4855 2.73427 25.8214 2.73427H16.1786Z" fill="#3C4A61"/>
<path d="M0.428589 13.9722V38.1126C0.428589 40.02 2.05136 41.5713 4.04466 41.5713H37.9554C39.9487 41.5713 41.5714 40.02 41.5714 38.1126V13.9722L30.1873 20.9292C28.4075 22.0168 26.4569 22.775 24.4286 23.1774V25.5713C24.4286 26.8337 23.4052 27.857 22.1429 27.857H19.8572C18.5948 27.857 17.5714 26.8337 17.5714 25.5713V23.1774C15.5431 22.775 13.5925 22.0168 11.8127 20.9292L0.428589 13.9722Z" fill="#3C4A61"/>
</svg>
